<?xml version="1.0" standalone="no"?>
<!DOCTYPE svg PUBLIC "-//W3C//DTD SVG 1.1//EN" "http://www.w3.org/Graphics/SVG/1.1/DTD/svg11.dtd">

<svg width="135" height="50" viewBox="0 0 135 50" preserveAspectRatio="none" 
  xmlns="http://www.w3.org/2000/svg"
  xmlns:xlink="http://www.w3.org/1999/xlink">


<polyline points="0.0, 43.30753667335321 0.8083832335329342, 43.33347482174034 1.6167664670658684, 42.86469720238069 2.4251497005988023, 42.649240266594404 3.2335329341317367, 42.3177065535873 4.041916167664671, 41.97957670986563 4.850299401197605, 42.03508393497504 5.658682634730539, 41.897847530430866 6.467065868263473, 40.91870708957906 7.275449101796408, 38.404748742322816 8.083832335329342, 37.57584503046104 8.892215568862277, 37.05652326492687 9.70059880239521, 37.76069454869696 10.508982035928144, 36.78324817283022 11.317365269461078, 35.50817464580455 12.125748502994012, 34.629021577646654 12.934131736526947, 31.533682648224172 13.74251497005988, 29.41750614013908 14.550898203592816, 26.72929453171426 15.359281437125748, 22.60072177459196 16.167664670658684, 21.688802747884992 16.976047904191617, 22.244949662535426 17.784431137724553, 22.504973240880794 18.592814371257486, 21.462886015136736 19.40119760479042, 21.22368108527219 20.20958083832335, 15.259633672109697 21.017964071856287, 13.067123021794666 21.82634730538922, 15.078658826492427 22.634730538922156, 11.847873904163299 23.443113772455092, 9.113203346619049 24.251497005988025, 7.478574383327083 25.059880239520957, 6.935727039809439 25.868263473053894, 6.759864563324502 26.676646706586826, 4.516429216325434 27.48502994011976, 3.13280995264747 28.29341317365269, 2.5779790786381414 29.10179640718563, 2.1611494033584155 29.910179640718564, 1.5038574996176841 30.718562874251496, 0.4644557756812406 31.526946107784433, 0.0 32.33532934131737, 2.8032142493452357 33.1437125748503, 5.241077868795969 33.952095808383234, 7.937227103025904 34.76047904191616, 9.081148453720852 35.568862275449106, 9.762925912554044 36.377245508982035, 10.157803987183534 37.18562874251497, 11.052907252827113 37.9940119760479, 11.772674637915165 38.80239520958084, 12.003626170287404 39.61077844311377, 18.19861964265701 40.4191616766467, 20.48031858519916 41.227544910179645, 21.841919977530857 42.035928143712574, 25.008852884216253 42.84431137724551, 26.96365078809168 43.65269461077844, 28.26147878231819 44.461077844311376, 28.791669168918038 45.26946107784431, 27.61311346359927 46.07784431137725, 29.55036041863362 46.886227544910184, 30.35976008856168 47.69461077844311, 30.666827942411416 48.50299401197605, 28.59493147156741 49.31137724550898, 26.82137957517351 50.119760479041915, 25.147375697623588 50.928143712574844, 23.714989914880135 51.73652694610779, 23.056176881094686 52.54491017964072, 22.85507092282021 53.35329341317365, 22.318432778228168 54.16167664670659, 21.78733772609814 54.97005988023952, 21.538547562340707 55.778443113772454, 21.1500294731138 56.58682634730538, 20.913078000898484 57.395209580838326, 20.449248124249124 58.20359281437126, 20.168764827672376 59.01197604790419, 19.90828556920846 59.82035928143713, 19.951673393478213 60.62874251497006, 20.0765108869944 61.43712574850299, 19.698496736890228 62.24550898203593, 19.762816377226315 63.053892215568865, 20.37467447217876 63.862275449101794, 20.486016061025207 64.67065868263474, 22.166810646023265 65.47904191616766, 22.074905495858843 66.2874251497006, 23.138554578329178 67.09580838323353, 23.28309774656389 67.90419161676647, 26.532900984349904 68.7125748502994, 28.836975216413922 69.52095808383233, 30.718872298099797 70.32934131736526, 31.837384809202156 71.13772455089821, 32.76452318291225 71.94610778443113, 33.16385656101264 72.75449101796407, 33.89745540185434 73.562874251497, 32.06226034890932 74.37125748502994, 28.086652023767826 75.17964071856287, 26.683630872965757 75.9880239520958, 24.426115165128028 76.79640718562875, 23.43139706091814 77.60479041916167, 22.025314273782996 78.41317365269461, 21.10908720198831 79.22155688622755, 19.378682758946113 80.02994011976048, 18.03320932561113 80.8383233532934, 17.61736857295994 81.64670658682634, 17.406493516663264 82.45508982035929, 16.917624240615723 83.26347305389221, 15.628905264055911 84.07185628742515, 14.662061274353874 84.88023952095809, 13.770624164940939 85.68862275449102, 13.143232579260857 86.49700598802396, 13.15540650238646 87.30538922155688, 12.277401837537944 88.11377245508983, 12.165921753453155 88.92215568862275, 12.81300001531977 89.73053892215569, 13.507585059852758 90.53892215568862, 13.510344226962099 91.34730538922156, 13.76741378826147 92.1556886227545, 14.113042148169905 92.96407185628742, 16.30756126582255 93.77245508982037, 20.18120297672379 94.58083832335329, 21.996970767337416 95.38922155688623, 24.060169583293487 96.19760479041915, 25.58884249952873 97.0059880239521, 27.26333993731419 97.81437125748504, 28.533264731223746 98.62275449101796, 30.35561063451509 99.43113772455091, 32.046525845839604 100.23952095808383, 32.80043830555697 101.04790419161677, 32.991911017951814 101.85628742514969, 33.62356717663918 102.66467065868264, 35.43805001747955 103.47305389221557, 37.77008987049896 104.2814371257485, 39.506583350141945 105.08982035928145, 41.36385952539785 105.89820359281437, 42.15223693974314 106.7065868263473, 43.30932821134382 107.51497005988023, 44.09710142586896 108.32335329341318, 45.02180805007164 109.13173652694611, 45.3119498914534 109.94011976047904, 45.34599684136038 110.74850299401199, 45.360969623051986 111.55688622754491, 45.48168123546579 112.36526946107784, 45.68696975292958 113.17365269461077, 46.42734535727445 113.98203592814372, 46.72621527172025 114.79041916167665, 47.4025009016046 115.59880239520957, 47.753931417503324 116.40718562874252, 48.05462790646865 117.21556886227545, 48.61016559014465 118.02395209580838, 48.7596794572495 118.83233532934132, 48.54725238226688 119.64071856287426, 48.776625221050644 120.44910179640719, 49.392423043789236 121.25748502994011, 49.63346022001211 122.06586826347306, 50.0 122.87425149700599, 49.757369904251455 123.68263473053892, 44.684130409445345 124.49101796407186, 34.62466234234536 125.2994011976048, 27.243133072586296 126.10778443113773, 23.272527959585968 126.91616766467065, 21.379424701748746 127.72455089820359, 19.560043897530434 128.5329341317365, 18.044252876567725 129.34131736526948, 17.32448904504043 130.1497005988024, 15.515932190758544 130.95808383233532, 13.935894680050422 131.76646706586826, 12.848221004482188 132.5748502994012, 12.0875092147689 133.38323353293413, 11.615154924006086 134.19161676646706, 11.108739446345727 135.0, 10.561915674527928" fill="none" stroke="#32ca5b" stroke-width="1.25"/>

</svg>