<?xml version="1.0" standalone="no"?>
<!DOCTYPE svg PUBLIC "-//W3C//DTD SVG 1.1//EN" "http://www.w3.org/Graphics/SVG/1.1/DTD/svg11.dtd">

<svg width="135" height="50" viewBox="0 0 135 50" preserveAspectRatio="none" 
  xmlns="http://www.w3.org/2000/svg"
  xmlns:xlink="http://www.w3.org/1999/xlink">


<polyline points="0.0, 0.0 0.8083832335329342, 0.06745857700125009 1.6167664670658684, 1.9889795521242026 2.4251497005988023, 1.0096002021057844 3.2335329341317367, 2.110945718587024 4.041916167664671, 1.2113177869748726 4.850299401197605, 1.4255322694319192 5.658682634730539, 1.7882677409849728 6.467065868263473, 5.099218564271489 7.275449101796408, 5.9324453780053865 8.083832335329342, 5.764780931275522 8.892215568862277, 4.749176150308713 9.70059880239521, 6.193756338769852 10.508982035928144, 7.646499327884077 11.317365269461078, 6.963510352116366 12.125748502994012, 7.43082409528774 12.934131736526947, 13.791304073189872 13.74251497005988, 16.79499863234384 14.550898203592816, 15.529946401916783 15.359281437125748, 15.752867808329526 16.167664670658684, 14.443569301897915 16.976047904191617, 15.192589597549459 17.784431137724553, 16.34134421211277 18.592814371257486, 15.646635362041957 19.40119760479042, 18.205636484097052 20.20958083832335, 24.03400777136398 21.017964071856287, 23.295928702310974 21.82634730538922, 26.614278900850547 22.634730538922156, 26.17845348180931 23.443113772455092, 22.8988051114035 24.251497005988025, 22.879599495064745 25.059880239520957, 23.68996553912338 25.868263473053894, 28.77531017567155 26.676646706586826, 26.58108332428048 27.48502994011976, 25.973371078608785 28.29341317365269, 26.55116490239722 29.10179640718563, 27.361643138357266 29.910179640718564, 23.969398277509118 30.718562874251496, 22.668777660371077 31.526946107784433, 20.89490426098031 32.33532934131737, 20.623703575337675 33.1437125748503, 21.33100091645926 33.952095808383234, 23.120351311536552 34.76047904191616, 21.50720812754128 35.568862275449106, 20.403156961093526 36.377245508982035, 20.684625616337605 37.18562874251497, 21.03499656591389 37.9940119760479, 22.308098806745775 38.80239520958084, 20.801029592130554 39.61077844311377, 21.53058408159195 40.4191616766467, 22.29391359104173 41.227544910179645, 20.26512767759726 42.035928143712574, 19.882641899634233 42.84431137724551, 22.001795314628886 43.65269461077844, 24.465628243545122 44.461077844311376, 26.200664559568477 45.26946107784431, 24.78843129612284 46.07784431137725, 24.843530722844783 46.886227544910184, 26.615096497403297 47.69461077844311, 29.55476332709768 48.50299401197605, 35.32697774734713 49.31137724550898, 35.80002744394644 50.119760479041915, 32.62235710286181 50.928143712574844, 33.02612235478974 51.73652694610779, 32.01899472885921 52.54491017964072, 33.393746957288016 53.35329341317365, 32.10672326631175 54.16167664670659, 31.758268542151225 54.97005988023952, 33.10630380874301 55.778443113772454, 30.564543501029213 56.58682634730538, 31.34130258338696 57.395209580838326, 29.127328368533984 58.20359281437126, 28.091962533051017 59.01197604790419, 27.607456808241555 59.82035928143713, 28.57938734132177 60.62874251497006, 28.220382356463848 61.43712574850299, 25.596511865257888 62.24550898203593, 26.99371392245692 63.053892215568865, 28.07601423586649 63.862275449101794, 28.84216535282095 64.67065868263474, 31.9578723808372 65.47904191616766, 30.153710091306518 66.2874251497006, 33.357985162648404 67.09580838323353, 32.67482938205346 67.90419161676647, 31.959772360893414 68.7125748502994, 33.91859138663782 69.52095808383233, 36.02418939037569 70.32934131736526, 34.05728996395291 71.13772455089821, 32.9721155604265 71.94610778443113, 32.48824099044841 72.75449101796407, 33.83325038636569 73.562874251497, 40.66118642105392 74.37125748502994, 44.56722818541856 75.17964071856287, 46.44568270330602 75.9880239520958, 46.61058588799166 76.79640718562875, 48.638970186529754 77.60479041916167, 49.409553308656484 78.41317365269461, 50.0 79.22155688622755, 49.56262626553114 80.02994011976048, 46.15012298162257 80.8383233532934, 47.43776280367179 81.64670658682634, 46.388017218466246 82.45508982035929, 45.57689836003341 83.26347305389221, 42.82660709240099 84.07185628742515, 41.01891540534375 84.88023952095809, 35.639829401450655 85.68862275449102, 34.622703929281286 86.49700598802396, 36.34261948708591 87.30538922155688, 34.36696869592488 88.11377245508983, 34.34947642882782 88.92215568862275, 34.644863309335314 89.73053892215569, 34.68253924984892 90.53892215568862, 34.849916399757184 91.34730538922156, 34.1453095663437 92.1556886227545, 35.70123931346409 92.96407185628742, 32.586595248567214 93.77245508982037, 31.48955709509899 94.58083832335329, 31.4655115730363 95.38922155688623, 29.097556847979295 96.19760479041915, 30.898092704626933 97.0059880239521, 32.421848846280874 97.81437125748504, 33.482620422319826 98.62275449101796, 31.89966757740051 99.43113772455091, 31.96696756557206 100.23952095808383, 34.030890111483934 101.04790419161677, 34.82279540349547 101.85628742514969, 34.23265615043827 102.66467065868264, 36.00671681191759 103.47305389221557, 34.86994661360171 104.2814371257485, 34.453313208959074 105.08982035928145, 33.600939924632385 105.89820359281437, 33.42313924042634 106.7065868263473, 32.84412058173487 107.51497005988023, 32.121018750700394 108.32335329341318, 32.1351561355326 109.13173652694611, 30.27286641979583 109.94011976047904, 30.34518484290848 110.74850299401199, 30.511008603290147 111.55688622754491, 30.654289578704685 112.36526946107784, 29.888800056462824 113.17365269461077, 31.212646321429233 113.98203592814372, 30.446705544284153 114.79041916167665, 30.756839439572346 115.59880239520957, 30.136877502248772 116.40718562874252, 29.47664382949299 117.21556886227545, 29.661031888779398 118.02395209580838, 30.98043842523696 118.83233532934132, 29.797053599554875 119.64071856287426, 29.559211534779738 120.44910179640719, 29.5094415831333 121.25748502994011, 29.96512028389901 122.06586826347306, 31.23855136445618 122.87425149700599, 33.068374106022105 123.68263473053892, 23.64224257529761 124.49101796407186, 8.32284519513554 125.2994011976048, 2.9373560769695906 126.10778443113773, 6.303532647724584 126.91616766467065, 3.9446660499650856 127.72455089820359, 1.7141400811461858 128.5329341317365, 1.6251701226039046 129.34131736526948, 1.122941641838886 130.1497005988024, 0.9501256045423161 130.95808383233532, 4.311237183180835 131.76646706586826, 5.456356862563299 132.5748502994012, 5.76090297664806 133.38323353293413, 7.487472045776099 134.19161676646706, 6.895823450597466 135.0, 6.1040124101177735" fill="none" stroke="#ff3a33" stroke-width="1.25"/>

</svg>